<svg width="115" height="121" viewBox="0 0 115 121" fill="none" xmlns="http://www.w3.org/2000/svg">
<path d="M50.5688 82H28.9116C28.7371 82 28.6499 81.891 28.6499 81.6729L28.7153 35.6431C28.7153 35.4686 28.8026 35.3813 28.9771 35.3813H50.5034C50.6779 35.3813 50.7651 35.4904 50.7651 35.7085V43.2002C50.7651 43.3747 50.6779 43.4619 50.5034 43.4619H36.7632V53.9307H50.5034C50.6779 53.9307 50.7651 54.0179 50.7651 54.1924L50.8306 61.7822C50.8306 61.9567 50.7433 62.0439 50.5688 62.0439H36.7632V73.7559H50.5688C50.7433 73.7559 50.8306 73.8649 50.8306 74.083V81.7383C50.8306 81.9128 50.7433 82 50.5688 82Z" fill="black"/>
<path d="M85.8447 82H60.8506C60.6325 82 60.5234 81.891 60.5234 81.6729L60.5889 74.3774L77.0117 43.0039H61.4722C61.2759 43.0039 61.1777 42.9167 61.1777 42.7422V35.7085C61.1777 35.4904 61.2759 35.3813 61.4722 35.3813H85.7139C85.932 35.3813 86.041 35.4904 86.041 35.7085V42.9385L69.7163 74.1484H85.8447C86.0192 74.1484 86.1064 74.2684 86.1064 74.5083L86.1719 81.6729C86.1719 81.891 86.0628 82 85.8447 82Z" fill="black"/>
<rect x="1.5" y="4.5" width="103" height="103" stroke="black" stroke-width="3"/>
<rect x="10.5" y="13.5" width="103" height="103" stroke="black" stroke-width="3"/>
</svg>
