<svg xmlns="http://www.w3.org/2000/svg" xmlns:xlink="http://www.w3.org/1999/xlink" width="105" height="20" viewBox="0 0 105 20">
  <defs>
    <linearGradient id="linear-gradient" x1="2.724" y1="0.474" x2="0.074" y2="0.505" gradientUnits="objectBoundingBox">
      <stop offset="0" stop-color="#51c8fd"/>
      <stop offset="1" stop-color="#9f94fa"/>
    </linearGradient>
    <linearGradient id="linear-gradient-2" x1="0.193" y1="0.232" x2="1.608" y2="1.468" gradientUnits="objectBoundingBox">
      <stop offset="0" stop-color="#257cff"/>
      <stop offset="0.423" stop-color="#51c8fd"/>
      <stop offset="1" stop-color="#9f94fa"/>
    </linearGradient>
    <linearGradient id="linear-gradient-3" x1="-1.856" y1="1.042" x2="0.573" y2="0.395" xlink:href="#linear-gradient"/>
  </defs>
  <g id="Group_31" data-name="Group 31" transform="translate(-296.52 -907)">
    <g id="Group_29" data-name="Group 29" transform="translate(296.52 907)">
      <g id="Group_26" data-name="Group 26" transform="translate(9.48 0)">
        <circle id="Ellipse_15" data-name="Ellipse 15" cx="10" cy="10" r="10" fill="none"/>
      </g>
      <g id="Group_25" data-name="Group 25" transform="translate(11.122 2.021)">
        <g id="Group_24" data-name="Group 24" transform="translate(0)">
          <path id="Subtraction_6" data-name="Subtraction 6" d="M7.916,15.832A7.918,7.918,0,0,1,4.835.622,7.918,7.918,0,0,1,11,15.21,7.866,7.866,0,0,1,7.916,15.832ZM8.578,3.972c-1.843,0-3.342,1.769-3.342,3.944s1.5,3.944,3.342,3.944,3.342-1.769,3.342-3.944S10.421,3.972,8.578,3.972Z" stroke="rgba(0,0,0,0)" stroke-miterlimit="10" stroke-width="1" fill="url(#linear-gradient)"/>
          <path id="Subtraction_5" data-name="Subtraction 5" d="M7.916,15.832A7.918,7.918,0,0,1,4.835.622,7.918,7.918,0,0,1,11,15.21,7.866,7.866,0,0,1,7.916,15.832ZM7.254,3.972c-1.843,0-3.342,1.769-3.342,3.944s1.5,3.944,3.342,3.944S10.6,10.091,10.6,7.916,9.1,3.972,7.254,3.972Z" transform="translate(1.324 0)" stroke="rgba(0,0,0,0)" stroke-miterlimit="10" stroke-width="1" fill="url(#linear-gradient-2)"/>
          <path id="Path_37" data-name="Path 37" d="M258.636,223.195a4.039,4.039,0,0,0-.662.059,4,4,0,0,1,0,7.889,4,4,0,1,0,.662-7.948Z" transform="translate(-249.396 -219.282)" fill="url(#linear-gradient-3)"/>
        </g>
      </g>
      <path id="Path_41" data-name="Path 41" d="M16.452-106.161l-2.718-5.049h-.408v5.049H9.52V-119.85h6a6.2,6.2,0,0,1,2.8.573,4.013,4.013,0,0,1,1.728,1.573,4.373,4.373,0,0,1,.583,2.243,4.076,4.076,0,0,1-.767,2.456,4.145,4.145,0,0,1-2.243,1.5l3.087,5.34Zm-3.126-7.65h1.883a1.634,1.634,0,0,0,1.165-.369,1.4,1.4,0,0,0,.388-1.068,1.365,1.365,0,0,0-.4-1.039,1.614,1.614,0,0,0-1.155-.379H13.326Zm25.01-6.039v13.689H34.53v-7.553l-2.583,7.553H28.763l-2.6-7.612v7.612H22.355V-119.85h4.6l3.437,8.893,3.359-8.893Zm5.981,10.777h4.252v2.913H40.51V-119.85h3.806Zm14.388.68H53.85l-.738,2.233h-4L54.1-119.85h4.388l4.971,13.689H59.442Zm-.951-2.913-1.476-4.427-1.456,4.427Zm10.757-5.5v2.233h4.369v2.893H68.51v2.466h4.951v3.049H64.7V-119.85h8.757v3.049Zm10.99,7.553h5.689v3.087H75.228v-2.893l5.631-7.728H75.228v-3.068h9.961v2.893Z" transform="translate(19.811 122.951)" fill="#484848"/>
      <path id="Path_40" data-name="Path 40" d="M18.8-119.85v3.029H13.326v2.408h4.039v2.893H13.326v5.359H9.52V-119.85Z" transform="translate(-9.52 122.951)" fill="#484848"/>
    </g>
  </g>
</svg>
